<?xml version="1.0" encoding="utf-8"?>
<!-- Generator: Adobe Illustrator 20.0.0, SVG Export Plug-In . SVG Version: 6.00 Build 0)  -->
<svg version="1.1" id="Calque_1" xmlns="http://www.w3.org/2000/svg" xmlns:xlink="http://www.w3.org/1999/xlink" x="0px" y="0px"
     width="1144.4px" height="518.2px" viewBox="0 0 1144.4 518.2" style="enable-background:new 0 0 1144.4 518.2;"
     xml:space="preserve">
<style type="text/css">
	.st0{fill:none;}
	.st1{fill:#FEED01;}
	.st2{fill:#412318;}
</style>
    <g id="Calque_3">
</g>
    <g id="Calque_2">
	<g>
		<g>
			<path class="st0" d="M204.4,474.1L0,476.1h168.1C180.6,476.3,192.7,475.6,204.4,474.1z"/>
            <path class="st1" d="M305.2,369.2c0-44.8-22.8-74.9-64.9-89.6c-3.7,21-13.7,41.1-27.4,57.6c-44.8,53.9-125.2,60.3-179.1,14.6
				c75.8,20.1,155.4-11,199.2-74.9c-18.3-5.5-39.3-8.2-64-8.2H0v207.4l204.4-2C261.2,466.8,305.2,438.2,305.2,369.2z"/>
            <path class="st1" d="M286,138.9c0-41.1-15.5-68.5-47.5-84.1c-0.9,2.7-0.9,5.5-1.8,7.3C212,127.9,138.9,161.8,73.1,138
				c-13.7-5.5-27.4-12.8-38.4-21.9c72.2,19.2,147.1-8.2,191.9-65.8c-15.5-5.5-34.7-8.2-57.6-8.2H0v184.6h169.1
				C248.6,226.6,286,187.3,286,138.9z"/>
            <path class="st2" d="M245.8,244.9v-1.8c53.9-12.8,90.5-61.2,90.5-116.1c0-96.9-79.5-127-167.2-127H0v42h169.1
				c22.8,0,42,2.7,57.6,8.2c-44.8,57.6-119.7,85-191.9,65.8c11,9.1,24.7,16.4,38.4,21.9c65.8,23.8,138.9-10.1,163.6-75.8
				c0.9-1.8,0.9-4.6,1.8-7.3c32,15.5,47.5,43,47.5,84.1c0,48.4-37.5,87.7-117,87.7H0v42h169.1c24.7,0,45.7,2.7,64,8.2
				c-43.9,64-123.4,95-199.2,74.9C87.8,397.4,168.2,391,213,337.1c13.7-16.4,23.8-36.6,27.4-57.6c42,14.6,64.9,44.8,64.9,89.6
				c0,69-44.1,97.7-100.8,104.9c-11.7,1.5-23.8,2.2-36.3,2H0v42h169.1c169.1,0.9,186.4-97.8,186.4-147.1
				C355.5,303.4,312.5,254,245.8,244.9z"/>
		</g>
        <g>
			<path class="st2" d="M468.2,184.8c-11.3,0-17-10.5-17-22.8c0-12,5.8-22.8,17.1-22.8c4.1,0,7,1,9.1,2.5l-1.8,4.9
				c-1.3-0.8-3.1-1.5-5.7-1.5c-7.6,0-10.2,8.4-10.2,16.9c0,8.6,2.9,16.6,10.2,16.6c2.6,0,4.1-0.6,5.6-1.5l1.9,5.3
				C475.4,183.9,472.2,184.8,468.2,184.8z"/>
            <path class="st2" d="M495.4,184.8c-9.7,0-14.4-7.7-14.4-18c0-10.4,4.7-18,14.4-18c9.8,0,14.4,7.7,14.4,18
				S505.1,184.8,495.4,184.8z M495.4,153.8c-5.5,0-6.6,6.4-6.6,13s1.2,12.7,6.6,12.7c5.6,0,6.6-6.1,6.6-12.7
				C502,160.2,501,153.8,495.4,153.8z"/>
            <path class="st2" d="M536.4,184.2v-24.6c0-2.8-1.3-5.8-6.2-5.8c-2.6,0-3.9,0.4-5.4,1v29.4h-7.9v-32.8c3.3-1.5,7.7-2.5,13.6-2.5
				c10.4,0,13.8,5,13.8,10.6v24.7L536.4,184.2L536.4,184.2z"/>
            <path class="st2" d="M562.2,154.5v29.7h-7.9v-29.7h-3.9v-5h3.9v-4.2c0-7.8,5.1-12.3,13.5-11.6v5c-3.3,0.1-5.7,1.4-5.7,5.9v5h5.7
				v5L562.2,154.5L562.2,154.5z"/>
            <path class="st2" d="M579.2,169.7c0.6,6.4,3.7,9.7,9.5,9.7c4,0,6.9-1,8.8-1.9l1.9,5c-2.4,1.4-6.2,2.4-11.5,2.4
				c-9.8,0-16.1-6.4-16.1-18.1c0-11.3,5.7-17.9,14.8-17.9c9.2,0,14.2,6.1,13.9,17.8L579.2,169.7z M586.3,153.7
				c-4.6,0-7.7,3.7-7.5,12l14.4-2.2C593.2,156.5,590.6,153.7,586.3,153.7z M587.8,145.8h-4.4l4.5-9.1c2.6-1.5,7-1.7,7.7,0.2
				L587.8,145.8z"/>
            <path class="st2" d="M622.5,184.8c-10.2,0-16.2-6.6-16.2-17.6c0-11.3,6.2-18.1,15.2-18.1c1.9,0,3.7,0.2,5.2,0.6v-16.2h7.9v48.7
				C631.8,183.9,627.9,184.8,622.5,184.8z M626.7,154.1c-1.1-0.3-2.3-0.5-3.5-0.5c-6.8,0-9.1,5.9-9.1,13.2c0,7.9,2.5,13,8.6,13
				c1.9,0,3.2-0.2,4.1-0.8L626.7,154.1L626.7,154.1z"/>
            <path class="st2" d="M649.1,169.7c0.6,6.4,3.7,9.7,9.5,9.7c4,0,6.9-1,8.8-1.9l1.9,5c-2.4,1.4-6.2,2.4-11.5,2.4
				c-9.8,0-16.1-6.4-16.1-18.1c0-11.3,5.7-17.9,14.8-17.9c9.2,0,14.2,6.1,13.9,17.8L649.1,169.7z M656.2,153.7
				c-4.6,0-7.7,3.7-7.5,12l14.4-2.2C663,156.5,660.5,153.7,656.2,153.7z M657.7,145.8h-4.4l4.5-9.1c2.6-1.5,7-1.7,7.7,0.2
				L657.7,145.8z"/>
            <path class="st2" d="M692.7,154.7c-2.6-0.9-5.5-0.8-7.3,0.3v29.3h-7.9v-32.8c3.6-1.7,8-2.7,16.7-2.4L692.7,154.7z"/>
            <path class="st2" d="M710.7,184.8c-9.5,0-14.2-3.9-14.2-10.6c0-9.1,8.8-11.8,19.4-12.8v-1.9c0-4.5-2.8-5.7-6.9-5.7
				c-3.3,0-6.6,1.1-8.7,2.1l-1.8-4.5c2.3-1.1,6.4-2.6,11.9-2.6c7.1,0,12.8,3,12.8,12v21.5C720.5,183.8,716.1,184.8,710.7,184.8z
				 M715.9,165.2c-7.4,0.9-12,2.5-12,8.8c0,4.5,2.7,6.4,7.3,6.4c1.8,0,3.5-0.4,4.7-1V165.2z"/>
            <path class="st2" d="M742.7,184.6c-6.8,0-9.5-4.6-9.5-9.4v-20.7h-3.9v-5h3.9v-7.7l7.9-2.2v9.8h5.7v5H741v20.3
				c0,2.7,1.1,4.5,3.8,4.5c0.7,0,1.2-0.1,1.9-0.3v4.9C745.9,184.2,744.5,184.6,742.7,184.6z"/>
            <path class="st2" d="M757.4,143.5c-2.4,0-4.3-1.7-4.3-3.9s1.9-3.9,4.3-3.9c2.4,0,4.3,1.7,4.3,3.9S759.8,143.5,757.4,143.5z
				 M753.5,184.2v-34.7h7.9v34.7H753.5z"/>
            <path class="st2" d="M783.1,184.8c-9.7,0-14.4-7.7-14.4-18c0-10.4,4.7-18,14.4-18c9.8,0,14.4,7.7,14.4,18
				S792.8,184.8,783.1,184.8z M783.1,153.8c-5.5,0-6.6,6.4-6.6,13s1.2,12.7,6.6,12.7c5.6,0,6.6-6.1,6.6-12.7
				C789.7,160.2,788.7,153.8,783.1,153.8z"/>
            <path class="st2" d="M824.1,184.2v-24.6c0-2.8-1.3-5.8-6.2-5.8c-2.6,0-3.9,0.4-5.4,1v29.4h-7.9v-32.8c3.3-1.5,7.7-2.5,13.6-2.5
				c10.4,0,13.8,5,13.8,10.6v24.7L824.1,184.2L824.1,184.2z"/>
            <path class="st2" d="M884.3,184.2l-16.8-28.6c-1.5-2.5-2.6-5-2.6-5h-0.1c0,0,0.3,2.5,0.3,5.1v28.4h-6.9v-44.3h7.7l15.8,26.9
				c1.5,2.5,2.4,4.5,2.4,4.5h0.1c0,0-0.2-2.1-0.2-4.7v-26.7h6.8v44.3h-6.5V184.2z"/>
            <path class="st2" d="M912.1,184.8c-9.5,0-14.2-3.9-14.2-10.6c0-9.1,8.8-11.8,19.4-12.8v-1.9c0-4.5-2.8-5.7-6.9-5.7
				c-3.3,0-6.6,1.1-8.7,2.1l-1.8-4.5c2.3-1.1,6.4-2.6,11.9-2.6c7.1,0,12.8,3,12.8,12v21.5C921.9,183.8,917.5,184.8,912.1,184.8z
				 M917.3,165.2c-7.4,0.9-12,2.5-12,8.8c0,4.5,2.7,6.4,7.3,6.4c1.8,0,3.5-0.4,4.7-1V165.2z"/>
            <path class="st2" d="M944.1,184.6c-6.8,0-9.5-4.6-9.5-9.4v-20.7h-3.9v-5h3.9v-7.7l7.9-2.2v9.8h5.7v5h-5.7v20.3
				c0,2.7,1.1,4.5,3.8,4.5c0.7,0,1.2-0.1,1.9-0.3v4.9C947.4,184.2,946,184.6,944.1,184.6z"/>
            <path class="st2" d="M958.9,143.5c-2.4,0-4.3-1.7-4.3-3.9s1.9-3.9,4.3-3.9c2.4,0,4.3,1.7,4.3,3.9S961.3,143.5,958.9,143.5z
				 M954.9,184.2v-34.7h7.9v34.7H954.9z"/>
            <path class="st2" d="M984.5,184.8c-9.7,0-14.4-7.7-14.4-18c0-10.4,4.7-18,14.4-18c9.8,0,14.4,7.7,14.4,18
				C999,177.1,994.3,184.8,984.5,184.8z M984.5,153.8c-5.5,0-6.6,6.4-6.6,13s1.2,12.7,6.6,12.7c5.6,0,6.6-6.1,6.6-12.7
				C991.2,160.2,990.1,153.8,984.5,153.8z"/>
            <path class="st2" d="M1025.5,184.2v-24.6c0-2.8-1.3-5.8-6.2-5.8c-2.6,0-3.9,0.4-5.4,1v29.4h-7.9v-32.8c3.3-1.5,7.7-2.5,13.6-2.5
				c10.4,0,13.8,5,13.8,10.6v24.7L1025.5,184.2L1025.5,184.2z"/>
            <path class="st2" d="M1054.2,184.8c-9.5,0-14.2-3.9-14.2-10.6c0-9.1,8.8-11.8,19.4-12.8v-1.9c0-4.5-2.8-5.7-6.9-5.7
				c-3.3,0-6.6,1.1-8.7,2.1l-1.8-4.5c2.3-1.1,6.4-2.6,11.9-2.6c7.1,0,12.8,3,12.8,12v21.5C1064,183.8,1059.6,184.8,1054.2,184.8z
				 M1059.5,165.2c-7.4,0.9-12,2.5-12,8.8c0,4.5,2.7,6.4,7.3,6.4c1.8,0,3.5-0.4,4.7-1V165.2z"/>
            <path class="st2" d="M1075.5,184.2v-50.5h7.9v50.5H1075.5z"/>
            <path class="st2" d="M1098.2,169.7c0.6,6.4,3.7,9.7,9.5,9.7c4,0,6.9-1,8.8-1.9l1.9,5c-2.4,1.4-6.2,2.4-11.5,2.4
				c-9.8,0-16.1-6.4-16.1-18.1c0-11.3,5.7-17.9,14.8-17.9c9.2,0,14.2,6.1,13.9,17.8L1098.2,169.7z M1105.3,153.7
				c-4.6,0-7.7,3.7-7.5,12l14.4-2.2C1112.1,156.5,1109.6,153.7,1105.3,153.7z"/>
            <path class="st2" d="M466.9,262.1c-10.2,0-16.2-6.6-16.2-17.6c0-11.3,6.2-18.1,15.2-18.1c1.9,0,3.7,0.2,5.2,0.6v-16.2h7.9v48.7
				C476.2,261.1,472.3,262.1,466.9,262.1z M471.1,231.3c-1.1-0.3-2.3-0.5-3.5-0.5c-6.8,0-9.1,5.9-9.1,13.2c0,7.9,2.5,13,8.6,13
				c1.9,0,3.2-0.2,4.1-0.8v-24.9H471.1z"/>
            <path class="st2" d="M493.5,246.9c0.6,6.4,3.7,9.7,9.5,9.7c4,0,6.9-1,8.8-1.9l1.9,5c-2.4,1.4-6.2,2.4-11.5,2.4
				c-9.8,0-16.1-6.4-16.1-18.1c0-11.3,5.7-17.9,14.8-17.9c9.2,0,14.2,6.1,13.9,17.8L493.5,246.9z M500.6,230.9
				c-4.6,0-7.7,3.7-7.5,12l14.4-2.2C507.4,233.8,504.9,230.9,500.6,230.9z"/>
            <path class="st2" d="M539.8,261.4v-50.5h7.9v50.5H539.8z"/>
            <path class="st2" d="M568.8,262.1c-9.5,0-14.2-3.9-14.2-10.6c0-9.1,8.8-11.8,19.4-12.8v-1.9c0-4.5-2.8-5.7-6.9-5.7
				c-3.3,0-6.6,1.1-8.7,2.1l-1.8-4.5c2.3-1.1,6.4-2.6,11.9-2.6c7.1,0,12.8,3,12.8,12v21.5C578.6,261,574.2,262.1,568.8,262.1z
				 M574,242.4c-7.4,0.9-12,2.5-12,8.8c0,4.5,2.7,6.4,7.3,6.4c1.8,0,3.5-0.4,4.7-1V242.4z"/>
            <path class="st2" d="M620.7,262.1c-5.6,0-10.1-0.9-13.1-2.5V219c2.7-1.5,7.3-2.5,12.6-2.5c10.7,0,16,4.9,16,11.5
				c0,6-4.5,9.2-8.2,10v0.1c4.1,0.9,9.7,4.8,9.7,11.2C637.7,258.1,630.8,262.1,620.7,262.1z M620.2,221.1c-1.9,0-3.4,0.3-4.9,0.8
				v14.4l2.5,0.1c7.9,0.2,10.5-2.5,10.5-7.9C628.3,223.6,625.6,221.1,620.2,221.1z M617.8,240.3l-2.5,0.1v15.9
				c1.4,0.6,3,0.8,5.1,0.8c5.3,0,9-2.1,9-7.9C629.5,243.1,626.2,240.1,617.8,240.3z"/>
            <path class="st2" d="M657.7,262.1c-9.7,0-14.4-7.7-14.4-18c0-10.4,4.7-18,14.4-18c9.8,0,14.4,7.7,14.4,18
				C672.1,254.4,667.5,262.1,657.7,262.1z M657.7,231.1c-5.5,0-6.6,6.4-6.6,13s1.2,12.7,6.6,12.7c5.6,0,6.6-6.1,6.6-12.7
				C664.4,237.4,663.3,231.1,657.7,231.1z"/>
            <path class="st2" d="M692.7,262.1c-9.3,0-13.5-4.1-13.5-11.7v-23.7h7.9v24.1c0,3.3,1.8,5.9,5.9,5.9c2.3,0,3.9-0.4,5.2-1.2v-28.8
				h7.9v32.6C703.1,260.9,698.7,262.1,692.7,262.1z"/>
            <path class="st2" d="M714.7,261.4v-50.5h7.9v50.5H714.7z"/>
            <path class="st2" d="M743.7,262.1c-9.5,0-14.2-3.9-14.2-10.6c0-9.1,8.8-11.8,19.4-12.8v-1.9c0-4.5-2.8-5.7-6.9-5.7
				c-3.3,0-6.6,1.1-8.7,2.1l-1.8-4.5c2.3-1.1,6.4-2.6,11.9-2.6c7.1,0,12.8,3,12.8,12v21.5C753.5,261,749.1,262.1,743.7,262.1z
				 M748.9,242.4c-7.4,0.9-12,2.5-12,8.8c0,4.5,2.7,6.4,7.3,6.4c1.8,0,3.5-0.4,4.7-1V242.4z"/>
            <path class="st2" d="M784.1,261.4v-24.6c0-2.8-1.3-5.8-6.2-5.8c-2.6,0-3.9,0.4-5.4,1v29.4h-7.9v-32.8c3.3-1.5,7.7-2.5,13.6-2.5
				c10.4,0,13.8,5,13.8,10.6v24.7H784.1z"/>
            <path class="st2" d="M812.9,276c-5,0-9.3-1-11.8-2.4l2.2-5.1c2,1.1,5.1,2.1,8.3,2.1c5.8,0,8-3.2,8-7.8v-2.2
				c-1.4,0.8-3.5,1.3-6.5,1.3c-8.3,0-14-6.4-14-16.9c0-11.3,5.6-18.7,16.8-18.7c5.1,0,9.1,1.1,11.3,2.5v33.3
				C827.1,271.2,821.5,276,812.9,276z M819.5,231.5c-1-0.6-2.4-0.8-4.1-0.8c-6.1,0-8.6,5-8.6,13.7c0,8.4,2.4,12.7,8.2,12.7
				c1.8,0,3.3-0.5,4.4-1.1L819.5,231.5L819.5,231.5z"/>
            <path class="st2" d="M841.7,246.9c0.6,6.4,3.7,9.7,9.5,9.7c4,0,6.9-1,8.8-1.9l1.9,5c-2.4,1.4-6.2,2.4-11.5,2.4
				c-9.8,0-16.1-6.4-16.1-18.1c0-11.3,5.7-17.9,14.8-17.9c9.2,0,14.2,6.1,13.9,17.8L841.7,246.9z M848.8,230.9
				c-4.6,0-7.7,3.7-7.5,12l14.4-2.2C855.6,233.8,853.1,230.9,848.8,230.9z"/>
            <path class="st2" d="M885.3,231.9c-2.6-0.9-5.5-0.8-7.3,0.3v29.3h-7.9v-32.8c3.6-1.7,8-2.7,16.7-2.4L885.3,231.9z"/>
            <path class="st2" d="M896.1,220.8c-2.4,0-4.3-1.7-4.3-3.9s1.9-3.9,4.3-3.9c2.4,0,4.3,1.7,4.3,3.9
				C900.4,219,898.6,220.8,896.1,220.8z M892.2,261.4v-34.7h7.9v34.7H892.2z"/>
            <path class="st2" d="M914.9,246.9c0.6,6.4,3.7,9.7,9.5,9.7c4,0,6.9-1,8.8-1.9l1.9,5c-2.4,1.4-6.2,2.4-11.5,2.4
				c-9.8,0-16.1-6.4-16.1-18.1c0-11.3,5.7-17.9,14.8-17.9c9.2,0,14.2,6.1,13.9,17.8L914.9,246.9z M921.9,230.9
				c-4.6,0-7.7,3.7-7.5,12l14.4-2.2C928.8,233.8,926.2,230.9,921.9,230.9z"/>
            <path class="st2" d="M458.2,324.2c0.6,6.4,3.7,9.7,9.5,9.7c4,0,6.9-1,8.8-1.9l1.9,5c-2.4,1.4-6.2,2.4-11.5,2.4
				c-9.8,0-16.1-6.4-16.1-18.1c0-11.3,5.7-17.9,14.8-17.9c9.2,0,14.2,6.1,13.9,17.8L458.2,324.2z M465.3,308.2
				c-4.6,0-7.7,3.7-7.5,12l14.4-2.2C472.1,311,469.6,308.2,465.3,308.2z"/>
            <path class="st2" d="M497.7,339.1c-6.8,0-9.5-4.6-9.5-9.4V309h-3.9v-5h3.9v-7.7l7.9-2.2v9.8h5.7v5H496v20.3
				c0,2.7,1.1,4.5,3.8,4.5c0.7,0,1.2-0.1,1.9-0.3v4.9C501,338.7,499.6,339.1,497.7,339.1z"/>
            <path class="st2" d="M539.3,339.3c-5.6,0-10.1-0.9-13.1-2.5v-40.5c2.7-1.5,7.3-2.5,12.6-2.5c10.7,0,16,4.9,16,11.5
				c0,6-4.5,9.2-8.2,10v0.1c4.1,0.9,9.7,4.8,9.7,11.2C556.2,335.4,549.4,339.3,539.3,339.3z M538.8,298.4c-1.9,0-3.4,0.3-4.9,0.8
				v14.4l2.5,0.1c7.9,0.2,10.5-2.5,10.5-7.9C546.9,300.8,544.1,298.4,538.8,298.4z M536.4,317.5l-2.5,0.1v15.9
				c1.4,0.6,3,0.8,5.1,0.8c5.3,0,9-2.1,9-7.9C548,320.3,544.7,317.3,536.4,317.5z"/>
            <path class="st2" d="M576.3,339.3c-9.7,0-14.4-7.7-14.4-18c0-10.4,4.7-18,14.4-18c9.8,0,14.4,7.7,14.4,18
				C590.7,331.6,586,339.3,576.3,339.3z M576.3,308.3c-5.5,0-6.6,6.4-6.6,13s1.2,12.7,6.6,12.7c5.6,0,6.6-6.1,6.6-12.7
				C582.9,314.7,581.9,308.3,576.3,308.3z"/>
            <path class="st2" d="M611.2,339.4c-9.3,0-13.5-4.1-13.5-11.7V304h7.9v24.1c0,3.3,1.8,5.9,5.9,5.9c2.3,0,3.9-0.4,5.2-1.2V304h7.9
				v32.6C621.7,338.2,617.3,339.4,611.2,339.4z"/>
            <path class="st2" d="M633.2,338.7v-50.5h7.9v50.5H633.2z"/>
            <path class="st2" d="M662.3,339.3c-9.5,0-14.2-3.9-14.2-10.6c0-9.1,8.8-11.8,19.4-12.8V314c0-4.5-2.8-5.7-6.9-5.7
				c-3.3,0-6.6,1.1-8.7,2.1l-1.8-4.5c2.3-1.1,6.4-2.6,11.9-2.6c7.1,0,12.8,3,12.8,12v21.5C672,338.3,667.7,339.3,662.3,339.3z
				 M667.5,319.7c-7.4,0.9-12,2.5-12,8.8c0,4.5,2.7,6.4,7.3,6.4c1.8,0,3.5-0.4,4.7-1V319.7z"/>
            <path class="st2" d="M702.7,338.7v-24.6c0-2.8-1.3-5.8-6.2-5.8c-2.6,0-3.9,0.4-5.4,1v29.4h-7.9v-32.8c3.3-1.5,7.7-2.5,13.6-2.5
				c10.4,0,13.8,5,13.8,10.6v24.7L702.7,338.7L702.7,338.7z"/>
            <path class="st2" d="M731.5,353.2c-5,0-9.3-1-11.8-2.4l2.2-5.1c2,1.1,5.1,2.1,8.3,2.1c5.8,0,8-3.2,8-7.8v-2.2
				c-1.4,0.8-3.5,1.3-6.5,1.3c-8.3,0-14-6.4-14-16.9c0-11.3,5.6-18.7,16.8-18.7c5.1,0,9.1,1.1,11.3,2.5v33.3
				C745.7,348.5,740.1,353.2,731.5,353.2z M738.1,308.7c-1-0.6-2.4-0.8-4.1-0.8c-6.1,0-8.6,5-8.6,13.7c0,8.4,2.4,12.7,8.2,12.7
				c1.8,0,3.3-0.5,4.4-1.1L738.1,308.7L738.1,308.7z"/>
            <path class="st2" d="M760.2,324.2c0.6,6.4,3.7,9.7,9.5,9.7c4,0,6.9-1,8.8-1.9l1.9,5c-2.4,1.4-6.2,2.4-11.5,2.4
				c-9.8,0-16.1-6.4-16.1-18.1c0-11.3,5.7-17.9,14.8-17.9c9.2,0,14.2,6.1,13.9,17.8L760.2,324.2z M767.3,308.2
				c-4.6,0-7.7,3.7-7.5,12l14.4-2.2C774.1,311,771.6,308.2,767.3,308.2z"/>
            <path class="st2" d="M803.8,309.1c-2.6-0.9-5.5-0.8-7.3,0.3v29.3h-7.9v-32.8c3.6-1.7,8-2.7,16.7-2.4L803.8,309.1z"/>
            <path class="st2" d="M814.7,298c-2.4,0-4.3-1.7-4.3-3.9c0-2.2,1.9-3.9,4.3-3.9c2.4,0,4.3,1.7,4.3,3.9S817.1,298,814.7,298z
				 M810.7,338.7V304h7.9v34.7H810.7z"/>
            <path class="st2" d="M833.4,324.2c0.6,6.4,3.7,9.7,9.5,9.7c4,0,6.9-1,8.8-1.9l1.9,5c-2.4,1.4-6.2,2.4-11.5,2.4
				c-9.8,0-16.1-6.4-16.1-18.1c0-11.3,5.7-17.9,14.8-17.9c9.2,0,14.2,6.1,13.9,17.8L833.4,324.2z M840.5,308.2
				c-4.6,0-7.7,3.7-7.5,12l14.4-2.2C847.3,311,844.8,308.2,840.5,308.2z"/>
            <path class="st2" d="M861.9,320v-6h15.7v6H861.9z"/>
            <path class="st2" d="M895.3,321.3l-1.7-0.1v17.5h-8v-42.4c2.8-1.5,7.1-2.5,12.2-2.5c11.4,0,16.2,5.9,16.2,13.8
				C914,315.6,908.5,322.3,895.3,321.3z M897.7,298.4c-1.9,0-3.3,0.4-4.1,0.7v17.2l1.7,0.1c8,0.6,10.9-2.9,10.9-9
				C906.1,301.5,903.7,298.4,897.7,298.4z"/>
            <path class="st2" d="M931.7,339.3c-9.5,0-14.2-3.9-14.2-10.6c0-9.1,8.8-11.8,19.4-12.8V314c0-4.5-2.8-5.7-6.9-5.7
				c-3.3,0-6.6,1.1-8.7,2.1l-1.8-4.5c2.3-1.1,6.4-2.6,11.9-2.6c7.1,0,12.8,3,12.8,12v21.5C941.5,338.3,937.1,339.3,931.7,339.3z
				 M938.8,300.6l-6.8-5l-7,5l-2.2-1.9l6.6-6.6c0.7-0.8,1.6-1.1,2.5-1.1s1.8,0.3,2.5,1.1l6.6,6.6L938.8,300.6z M936.9,319.7
				c-7.4,0.9-12,2.5-12,8.8c0,4.5,2.7,6.4,7.3,6.4c1.8,0,3.5-0.4,4.7-1V319.7z"/>
            <path class="st2" d="M963.7,339.1c-6.8,0-9.5-4.6-9.5-9.4V309h-3.9v-5h3.9v-7.7l7.9-2.2v9.8h5.7v5H962v20.3
				c0,2.7,1.1,4.5,3.8,4.5c0.7,0,1.2-0.1,1.9-0.3v4.9C967,338.7,965.5,339.1,963.7,339.1z"/>
            <path class="st2" d="M978.4,298c-2.4,0-4.3-1.7-4.3-3.9c0-2.2,1.9-3.9,4.3-3.9c2.4,0,4.3,1.7,4.3,3.9S980.9,298,978.4,298z
				 M974.5,338.7V304h7.9v34.7H974.5z"/>
            <path class="st2" d="M998.4,339.2c-4.1,0-7.5-1.1-9.6-2.5l2.1-5c1.3,1,3.7,2,6.5,2c3.2,0,5.3-2.1,5.3-4.9c0-3-1.5-4.4-5.1-5.7
				c-6.6-2.5-7.9-6.1-7.9-9.7c0-5.5,4.4-10,11-10c3.9,0,6.8,1,9,2.4l-1.9,4.6c-1-0.8-3.1-1.9-5.5-1.9c-3.2,0-5,2.1-5,4.6
				c0,2.8,2.1,4.2,5.1,5.5c6.8,2.7,8.3,6.2,8.3,10.2C1010.8,334.4,1006,339.2,998.4,339.2z"/>
            <path class="st2" d="M1024.5,339.2c-4.1,0-7.5-1.1-9.6-2.5l2.1-5c1.3,1,3.7,2,6.5,2c3.2,0,5.3-2.1,5.3-4.9c0-3-1.5-4.4-5.1-5.7
				c-6.6-2.5-7.9-6.1-7.9-9.7c0-5.5,4.4-10,11-10c3.9,0,6.8,1,9,2.4l-1.9,4.6c-1-0.8-3.1-1.9-5.5-1.9c-3.2,0-5,2.1-5,4.6
				c0,2.8,2.1,4.2,5.1,5.5c6.8,2.7,8.3,6.2,8.3,10.2C1036.9,334.4,1032.1,339.2,1024.5,339.2z"/>
            <path class="st2" d="M1049.9,324.2c0.6,6.4,3.7,9.7,9.5,9.7c4,0,6.9-1,8.8-1.9l1.9,5c-2.4,1.4-6.2,2.4-11.5,2.4
				c-9.8,0-16.1-6.4-16.1-18.1c0-11.3,5.7-17.9,14.8-17.9c9.2,0,14.2,6.1,13.9,17.8L1049.9,324.2z M1057,308.2
				c-4.6,0-7.7,3.7-7.5,12l14.4-2.2C1063.8,311,1061.3,308.2,1057,308.2z"/>
            <path class="st2" d="M1093.5,309.1c-2.6-0.9-5.5-0.8-7.3,0.3v29.3h-7.9v-32.8c3.6-1.7,8-2.7,16.7-2.4L1093.5,309.1z"/>
            <path class="st2" d="M1104.4,298c-2.4,0-4.3-1.7-4.3-3.9c0-2.2,1.9-3.9,4.3-3.9s4.3,1.7,4.3,3.9
				C1108.7,296.3,1106.8,298,1104.4,298z M1100.4,338.7V304h7.9v34.7H1100.4z"/>
            <path class="st2" d="M1123.1,324.2c0.6,6.4,3.7,9.7,9.5,9.7c4,0,6.9-1,8.8-1.9l1.9,5c-2.4,1.4-6.2,2.4-11.5,2.4
				c-9.8,0-16.1-6.4-16.1-18.1c0-11.3,5.7-17.9,14.8-17.9c9.2,0,14.2,6.1,13.9,17.8L1123.1,324.2z M1130.2,308.2
				c-4.6,0-7.7,3.7-7.5,12l14.4-2.2C1137,311,1134.5,308.2,1130.2,308.2z"/>
            <path class="st2" d="M460.5,377.1v13.4h11.8v5.4h-11.8v20h-8.2v-44.3h21.5v5.5H460.5z"/>
            <path class="st2" d="M494.9,386.4c-2.6-0.9-5.5-0.8-7.3,0.3V416h-7.9v-32.8c3.6-1.7,8-2.7,16.7-2.4L494.9,386.4z"/>
            <path class="st2" d="M512.9,416.5c-9.5,0-14.2-3.9-14.2-10.6c0-9.1,8.8-11.8,19.4-12.8v-1.9c0-4.5-2.8-5.7-6.9-5.7
				c-3.3,0-6.6,1.1-8.7,2.1l-1.8-4.5c2.3-1.1,6.4-2.6,11.9-2.6c7.1,0,12.8,3,12.8,12V414C522.6,415.5,518.3,416.5,512.9,416.5z
				 M518.1,396.9c-7.4,0.9-12,2.5-12,8.8c0,4.5,2.7,6.4,7.3,6.4c1.8,0,3.5-0.4,4.7-1V396.9z"/>
            <path class="st2" d="M553.3,415.9v-24.6c0-2.8-1.3-5.8-6.2-5.8c-2.6,0-3.9,0.4-5.4,1v29.4h-7.9v-32.8c3.3-1.5,7.7-2.5,13.6-2.5
				c10.4,0,13.8,5,13.8,10.6v24.7L553.3,415.9L553.3,415.9z"/>
            <path class="st2" d="M581.9,416.5c-7.9,0-13.7-6.6-13.7-18.1s6-17.9,13.8-17.9c4.2,0,6.8,1.3,8,2.4l-1.7,4.4
				c-1-0.8-2.4-1.5-4.6-1.5c-5.3,0-7.6,4.8-7.6,12.4c0,7.7,2.6,12.5,7.5,12.5c2.1,0,3.6-0.6,4.7-1.5l1.8,4.8
				C588.7,415.5,586.1,416.5,581.9,416.5z M570.5,428.8l1.5-2.6c5.7,0.5,10.4-0.3,10.4-2.2c0-1.7-2.3-2.3-7.9-1.8l1.5-2.4
				c8.9-0.8,11.8,1.2,11.8,4.2C587.7,428.1,581.1,429.7,570.5,428.8z"/>
            <path class="st2" d="M608.1,416.5c-9.5,0-14.2-3.9-14.2-10.6c0-9.1,8.8-11.8,19.4-12.8v-1.9c0-4.5-2.8-5.7-6.9-5.7
				c-3.3,0-6.6,1.1-8.7,2.1l-1.8-4.5c2.3-1.1,6.4-2.6,11.9-2.6c7.1,0,12.8,3,12.8,12V414C617.9,415.5,613.5,416.5,608.1,416.5z
				 M613.3,396.9c-7.4,0.9-12,2.5-12,8.8c0,4.5,2.7,6.4,7.3,6.4c1.8,0,3.5-0.4,4.7-1V396.9z"/>
            <path class="st2" d="M633.2,375.2c-2.4,0-4.3-1.7-4.3-3.9c0-2.2,1.9-3.9,4.3-3.9c2.4,0,4.3,1.7,4.3,3.9S635.7,375.2,633.2,375.2z
				 M629.3,415.9v-34.7h7.9v34.7H629.3z"/>
            <path class="st2" d="M653.2,416.5c-4.1,0-7.5-1.1-9.6-2.5l2.1-5c1.3,1,3.7,2,6.5,2c3.2,0,5.3-2.1,5.3-4.9c0-3-1.5-4.4-5.1-5.7
				c-6.6-2.5-7.9-6.1-7.9-9.7c0-5.5,4.4-10,11-10c3.9,0,6.8,1,9,2.4l-1.9,4.6c-1-0.8-3.1-1.9-5.5-1.9c-3.2,0-5,2.1-5,4.6
				c0,2.8,2.1,4.2,5.1,5.5c6.8,2.7,8.3,6.2,8.3,10.2C665.6,411.6,660.8,416.5,653.2,416.5z"/>
            <path class="st2" d="M678.7,401.4c0.6,6.4,3.7,9.7,9.5,9.7c4,0,6.9-1,8.8-1.9l1.9,5c-2.4,1.4-6.2,2.4-11.5,2.4
				c-9.8,0-16.1-6.4-16.1-18.1c0-11.3,5.7-17.9,14.8-17.9c9.2,0,14.2,6.1,13.9,17.8L678.7,401.4z M685.7,385.4
				c-4.6,0-7.7,3.7-7.5,12l14.4-2.2C692.6,388.2,690,385.4,685.7,385.4z"/>
		</g>
	</g>
</g>
</svg>
